<svg xmlns="http://www.w3.org/2000/svg" width="40" height="40"><rect width="100%" height="100%" fill="none"/><g class="currentLayer"><g fill="#00d8ab"><path d="M29.7 26.2l-.3-.1-5.8-5.4a.5.5 0 1 1 .7-.7l5.8 5.4a.5.5 0 0 1-.4.8zM10.5 26.2a.5.5 0 0 1-.3-.8l5.7-5.4a.5.5 0 0 1 .7.7l-5.8 5.4-.3.1z" data-original="#000000" class="active-path" data-old_color="##00D8Afill:##00D8Afill:#000000fill:#000000fill:#000000fill:#000000fill:#000000fill:#000000fill:#000000fill:#000000fill:#000000fill:#000000fill:#000000fill:#000000fill:#000000fill:#000000fill:#000000fill:#000000fill:#000000fill:#000000fill:#000000fill:#000000fill:#000000fill:#000000fill:#000000fill:#000000fill:#000000fill:#000000fill:#000000fill:#000000fill:#000000fill:#000000fill:#000000fill:#000000fill:#000000fill:#000000fill:#000000fill:#000000fill:#000000fill:#000000fill:#000000fill:#000000fill:#000000fill:#000000fill:#000000fill:#000000fill:#000000fill:#000000fill:#000000fill:#000000fill:#000000fill:#000000fill:#000000fill:#000000fill:#000000fill:#000000fill:#000000fill:#000000fill:#000000fill:#000000fill:#000000fill:#000000fill:#FFC100fill:#FFC100fill:#FFC100fill:#FFF700fill:#000000fill:#FFFF00fill:#000000fill:#E8FF00fill:#000000fill:#C1FF00fill:#000000fill:#93FF00fill:#000000fill:#6DFF00fill:#000000fill:#38FF00fill:#000000fill:#00FF05fill:#000000fill:#00FF33fill:#000000fill:#00FF68fill:#000000fill:#00FF8Efill:#000000fill:#00FFADfill:#000000fill:#00FFBCfill:#000000fill:#00FFC4fill:#000000fill:#00FFD3fill:#000000fill:#00FFDBfill:#000000fill:#00FFEAfill:#000000fill:#00FFEAfill:#000000fill:#00FFF2fill:#000000fill:#00FFF2fill:#000000fill:#00FFF9fill:#000000fill:#00FFF9fill:#000000fill:#00FFF9fill:#000000fill:#000000fill:#00FFF9fill:#00FFF9fill:#00FFF9fill:#000000fill:#000000fill:#000000fill:#000000fill:#000000fill:#000000fill:#000000fill:#000000fill:#000000fill:#000000fill:#000000fill:#000000fill:#000000fill:#000000fill:#000000fill:#000000fill:#000000fill:#000000fill:#000000fill:#000000fill:#000000fill:#000000fill:#000000fill:#000000fill:#000000"/><path d="M33.1 31.3h-26a2.5 2.5 0 0 1-2.5-2.5v-17c0-1.5 1.1-2.6 2.5-2.6h26c1.4 0 2.5 1.1 2.5 2.5v17c0 1.4-1.1 2.6-2.5 2.6zm-26-21c-.8 0-1.5.6-1.5 1.4v17c0 .9.7 1.6 1.5 1.6h26c.8 0 1.5-.7 1.5-1.5v-17c0-1-.7-1.6-1.5-1.6h-26z" data-original="#000000" class="active-path" data-old_color="##00D8Afill:##00D8Afill:#000000fill:#000000fill:#000000fill:#000000fill:#000000fill:#000000fill:#000000fill:#000000fill:#000000fill:#000000fill:#000000fill:#000000fill:#000000fill:#000000fill:#000000fill:#000000fill:#000000fill:#000000fill:#000000fill:#000000fill:#000000fill:#000000fill:#000000fill:#000000fill:#000000fill:#000000fill:#000000fill:#000000fill:#000000fill:#000000fill:#000000fill:#000000fill:#000000fill:#000000fill:#000000fill:#000000fill:#000000fill:#000000fill:#000000fill:#000000fill:#000000fill:#000000fill:#000000fill:#000000fill:#000000fill:#000000fill:#000000fill:#000000fill:#000000fill:#000000fill:#000000fill:#000000fill:#000000fill:#000000fill:#000000fill:#000000fill:#000000fill:#000000fill:#000000fill:#000000fill:#FFC100fill:#FFC100fill:#FFC100fill:#FFF700fill:#000000fill:#FFFF00fill:#000000fill:#E8FF00fill:#000000fill:#C1FF00fill:#000000fill:#93FF00fill:#000000fill:#6DFF00fill:#000000fill:#38FF00fill:#000000fill:#00FF05fill:#000000fill:#00FF33fill:#000000fill:#00FF68fill:#000000fill:#00FF8Efill:#000000fill:#00FFADfill:#000000fill:#00FFBCfill:#000000fill:#00FFC4fill:#000000fill:#00FFD3fill:#000000fill:#00FFDBfill:#000000fill:#00FFEAfill:#000000fill:#00FFEAfill:#000000fill:#00FFF2fill:#000000fill:#00FFF2fill:#000000fill:#00FFF9fill:#000000fill:#00FFF9fill:#000000fill:#00FFF9fill:#000000fill:#000000fill:#00FFF9fill:#00FFF9fill:#00FFF9fill:#000000fill:#000000fill:#000000fill:#000000fill:#000000fill:#000000fill:#000000fill:#000000fill:#000000fill:#000000fill:#000000fill:#000000fill:#000000fill:#000000fill:#000000fill:#000000fill:#000000fill:#000000fill:#000000fill:#000000fill:#000000fill:#000000fill:#000000fill:#000000fill:#000000"/><path d="M20.1 22.7c-.7 0-1.3-.2-1.8-.6L5.4 10.9a.5.5 0 0 1 0-.7c.2-.2.5-.2.7 0l12.8 11.1c.7.6 1.8.6 2.4 0L34 10.1a.5.5 0 0 1 .7.8L21.9 22.1c-.5.4-1.1.6-1.8.6z" data-original="#000000" class="active-path" data-old_color="##00D8Afill:##00D8Afill:#000000fill:#000000fill:#000000fill:#000000fill:#000000fill:#000000fill:#000000fill:#000000fill:#000000fill:#000000fill:#000000fill:#000000fill:#000000fill:#000000fill:#000000fill:#000000fill:#000000fill:#000000fill:#000000fill:#000000fill:#000000fill:#000000fill:#000000fill:#000000fill:#000000fill:#000000fill:#000000fill:#000000fill:#000000fill:#000000fill:#000000fill:#000000fill:#000000fill:#000000fill:#000000fill:#000000fill:#000000fill:#000000fill:#000000fill:#000000fill:#000000fill:#000000fill:#000000fill:#000000fill:#000000fill:#000000fill:#000000fill:#000000fill:#000000fill:#000000fill:#000000fill:#000000fill:#000000fill:#000000fill:#000000fill:#000000fill:#000000fill:#000000fill:#000000fill:#000000fill:#FFC100fill:#FFC100fill:#FFC100fill:#FFF700fill:#000000fill:#FFFF00fill:#000000fill:#E8FF00fill:#000000fill:#C1FF00fill:#000000fill:#93FF00fill:#000000fill:#6DFF00fill:#000000fill:#38FF00fill:#000000fill:#00FF05fill:#000000fill:#00FF33fill:#000000fill:#00FF68fill:#000000fill:#00FF8Efill:#000000fill:#00FFADfill:#000000fill:#00FFBCfill:#000000fill:#00FFC4fill:#000000fill:#00FFD3fill:#000000fill:#00FFDBfill:#000000fill:#00FFEAfill:#000000fill:#00FFEAfill:#000000fill:#00FFF2fill:#000000fill:#00FFF2fill:#000000fill:#00FFF9fill:#000000fill:#00FFF9fill:#000000fill:#00FFF9fill:#000000fill:#000000fill:#00FFF9fill:#00FFF9fill:#00FFF9fill:#000000fill:#000000fill:#000000fill:#000000fill:#000000fill:#000000fill:#000000fill:#000000fill:#000000fill:#000000fill:#000000fill:#000000fill:#000000fill:#000000fill:#000000fill:#000000fill:#000000fill:#000000fill:#000000fill:#000000fill:#000000fill:#000000fill:#000000fill:#000000fill:#000000"/></g></g></svg>